PathFileType	4	(X/Y/Z)	C:\Users\86182\Documents\cortex\Trimmed_M1_L11.trc
DataRate	CameraRate	NumFrames	NumMarkers	Units	OrigDataRate	OrigDataStartFrame	OrigNumFrames
100.00	100.00	       130	2	mm	100.00	1	       901
Frame#	Time	gripper			box			
		X1	Y1	Z1	X2	Y2	Z2	

1	0.000	200.57553	195.21606	192.72755	203.68352	194.31631	57.70722	
2	0.010	200.58511	195.20784	192.72049	203.67227	194.29381	57.70838	
3	0.020	200.57553	195.21606	192.72755	203.69014	194.29727	57.68756	
4	0.030	200.56836	195.22220	192.73282	203.68916	194.31175	57.70103	
5	0.040	200.56725	195.22308	192.73567	203.66977	194.29472	57.71383	
6	0.050	200.56836	195.22220	192.73282	203.69963	194.32242	57.69811	
7	0.060	200.58997	195.20367	192.71690	203.69353	194.32748	57.69930	
8	0.070	200.58275	195.20988	192.72224	203.68681	194.30910	57.69784	
9	0.080	200.57077	195.22015	192.73106	203.71165	194.31760	57.67282	
10	0.090	200.57553	195.21606	192.72755	203.68248	194.31326	57.71002	
11	0.100	200.56487	195.22511	192.73743	203.69568	194.33057	57.69814	
12	0.110	200.56836	195.22220	192.73282	203.70256	194.32799	57.69802	
13	0.120	200.57317	195.21811	192.72931	203.70459	194.32480	57.69146	
14	0.130	200.58830	195.20341	192.71504	203.68362	194.30746	57.70240	
15	0.140	200.57553	195.21606	192.72755	203.70728	194.32573	57.69062	
16	0.150	200.58511	195.20784	192.72049	203.68152	194.29787	57.69880	
17	0.160	200.57553	195.21606	192.72755	203.69144	194.30626	57.69457	
18	0.170	200.57553	195.21606	192.72755	203.70097	194.33240	57.69647	
19	0.180	200.55653	195.23236	192.74155	203.70038	194.33003	57.69539	
20	0.190	200.56836	195.22220	192.73282	203.71527	194.32738	57.67880	
21	0.200	200.54385	195.22824	192.72328	203.68558	194.31303	57.70093	
22	0.210	200.57553	195.21606	192.72755	203.66258	194.28740	57.71700	
23	0.220	200.57553	195.21606	192.72755	203.73991	194.37372	57.67478	
24	0.230	200.59724	195.19742	192.71155	203.69626	194.32954	57.70751	
25	0.240	200.57317	195.21811	192.72931	203.67888	194.29233	57.69912	
26	0.250	200.57317	195.21811	192.72931	203.69174	194.31790	57.69614	
27	0.260	200.57317	195.21811	192.72931	203.72107	194.34955	57.68454	
28	0.270	200.57317	195.21811	192.72931	203.73671	194.37189	57.67619	
29	0.280	200.57793	195.21400	192.72578	203.74129	194.38266	57.67826	
30	0.290	200.58754	195.20575	192.71867	203.68912	194.31876	57.70156	
31	0.300	200.59480	195.19952	192.71335	203.73309	194.36319	57.67956	
32	0.310	200.56125	195.22832	192.73807	203.73700	194.37457	57.67630	
33	0.320	200.59073	195.20134	192.71327	203.71979	194.34822	57.69164	
34	0.330	200.57317	195.21811	192.72931	203.73207	194.36301	57.68188	
35	0.340	200.57317	195.21811	192.72931	203.72333	194.35944	57.68439	
36	0.350	200.57077	195.22015	192.73106	203.69322	194.31754	57.70245	
37	0.360	200.56836	195.22220	192.73282	203.70618	194.33441	57.69430	
38	0.370	200.58754	195.20575	192.71867	203.72382	194.35597	57.67951	
39	0.380	200.56836	195.22220	192.73282	203.67261	194.29616	57.70896	
40	0.390	200.58031	195.21194	192.72401	203.67610	194.29544	57.70466	
41	0.400	200.57317	195.21811	192.72931	203.67723	194.29384	57.70160	
42	0.410	200.58511	195.20784	192.72049	203.68312	194.31627	57.70669	
43	0.420	200.56673	195.22197	192.73099	203.67433	194.29884	57.71132	
44	0.430	200.57317	195.21811	192.72931	203.68784	194.30513	57.69433	
45	0.440	200.56836	195.22220	192.73282	203.65912	194.28162	57.71651	
46	0.450	200.59724	195.19742	192.71155	203.66380	194.29060	57.71423	
47	0.460	200.58589	195.20549	192.71683	203.66292	194.28326	57.71281	
48	0.470	200.58031	195.21194	192.72401	203.66559	194.28654	57.71213	
49	0.480	200.57141	195.21957	192.73160	203.69170	194.31267	57.70010	
50	0.490	200.57793	195.21400	192.72578	203.67734	194.29800	57.70643	
51	0.500	200.58511	195.20784	192.72049	203.67165	194.29143	57.70726	
52	0.510	200.56435	195.22400	192.73274	203.69310	194.32277	57.69836	
53	0.520	200.59724	195.19742	192.71155	203.72148	194.36305	57.69412	
54	0.530	200.60210	195.19325	192.70796	203.70937	194.34227	57.69501	
55	0.540	200.57077	195.22015	192.73106	203.68968	194.31648	57.70220	
56	0.550	200.59149	195.19899	192.70959	203.71310	194.34094	57.69540	
57	0.560	200.57317	195.21811	192.72931	203.71957	194.34183	57.68613	
58	0.570	200.58031	195.21194	192.72401	203.70010	194.32072	57.69414	
59	0.580	200.58511	195.20784	192.72049	203.68486	194.30774	57.70386	
60	0.590	200.58275	195.20988	192.72224	203.67964	194.29704	57.70066	
61	0.600	200.58511	195.20784	192.72049	203.66777	194.28972	57.71088	
62	0.610	200.58511	195.20784	192.72049	203.67612	194.30663	57.70989	
63	0.620	200.60696	195.18906	192.70435	203.68719	194.30861	57.70258	
64	0.630	200.58275	195.20988	192.72224	203.70599	194.34248	57.70368	
65	0.640	200.58031	195.21194	192.72401	203.69482	194.32950	57.70540	
66	0.650	200.56363	195.22627	192.73633	203.69075	194.32375	57.70398	
67	0.660	200.58997	195.20367	192.71690	203.74390	194.38232	57.68268	
68	0.670	200.60944	195.18695	192.70255	203.67204	194.29375	57.70810	
69	0.680	200.57793	195.21400	192.72578	203.67810	194.28986	57.69792	
70	0.690	200.57553	195.21606	192.72755	203.69695	194.33264	57.70411	
71	0.700	200.57793	195.21400	192.72578	203.67320	194.30045	57.71436	
72	0.710	200.58180	195.20732	192.71675	203.67732	194.30678	57.71150	
73	0.720	200.59480	195.19952	192.71335	203.71414	194.35593	57.69323	
74	0.730	200.58275	195.20988	192.72224	203.69395	194.31995	57.70367	
75	0.740	200.57793	195.21400	192.72578	203.73619	194.37982	57.68524	
76	0.750	200.58575	195.20726	192.72102	203.71967	194.34071	57.67705	
77	0.760	200.58511	195.20784	192.72049	203.66478	194.28407	57.71097	
78	0.770	200.60210	195.19325	192.70796	203.75966	194.40463	57.67113	
79	0.780	200.57317	195.21811	192.72931	203.66525	194.29065	57.71636	
80	0.790	200.58258	195.20497	192.71309	203.74557	194.38376	57.67610	
81	0.800	200.57141	195.21957	192.73160	203.67145	194.30022	57.71203	
82	0.810	200.58997	195.20367	192.71690	203.72084	194.35548	57.69342	
83	0.820	200.56836	195.22220	192.73282	203.72031	194.35307	57.69250	
84	0.830	200.58997	195.20367	192.71690	203.69458	194.31006	57.69028	
85	0.840	200.57916	195.21284	192.72688	203.68001	194.31004	57.71088	
86	0.850	200.57077	195.22015	192.73106	203.68796	194.31982	57.70888	
87	0.860	200.59964	195.19534	192.70975	203.74670	194.38193	57.67329	
88	0.870	200.59724	195.19742	192.71155	203.69908	194.33412	57.69818	
89	0.880	200.58031	195.21194	192.72401	203.70581	194.33202	57.69372	
90	0.890	200.59724	195.19742	192.71155	203.70430	194.32712	57.69133	
91	0.900	200.58997	195.20367	192.71690	203.72649	194.36754	57.68816	
92	0.910	200.57317	195.21811	192.72931	203.65724	194.28081	57.71835	
93	0.920	200.55653	195.23236	192.74155	203.67320	194.30045	57.71436	
94	0.930	200.56599	195.22424	192.73457	203.66101	194.28244	57.71467	
95	0.940	200.55417	195.23441	192.74330	203.67607	194.30418	57.70979	
96	0.950	200.55417	195.23441	192.74330	203.65724	194.28081	57.71835	
97	0.960	200.52504	195.22769	192.76328	203.60207	194.21652	57.72710	
98	0.970	200.47615	195.19319	192.80084	203.59393	194.20703	57.72841	
99	0.980	200.46176	195.16101	192.82486	203.59393	194.20703	57.72841	
100	0.990	200.46292	195.15982	192.82602	203.53938	194.20561	57.75705	
101	1.000	200.46292	195.15982	192.82602	203.58932	194.20691	57.73083	
102	1.010	200.45323	195.14410	192.84068	203.59784	194.13632	57.62445	
103	1.020	200.47963	195.11707	192.89267	203.51103	194.10544	57.60927	
104	1.030	200.56831	195.12207	193.06190	203.47925	194.00705	57.70203	
105	1.040	200.52737	195.09276	193.22397	203.36452	193.95033	57.72608	
106	1.050	200.48367	195.06938	193.41800	203.39052	193.92874	57.83638	
107	1.060	200.41829	195.06055	193.62755	203.45772	193.96080	57.96058	
108	1.070	200.33031	195.05806	193.87112	203.39130	194.02052	58.11253	
109	1.080	200.38086	195.07397	193.99928	203.31615	193.95589	58.21828	
110	1.090	200.35132	195.06775	194.32933	203.34247	194.03395	58.51870	
111	1.100	200.45071	195.12999	194.63953	202.22969	195.15266	59.87970	
112	1.110	200.61816	195.07561	195.01001	203.26996	193.96143	59.15115	
113	1.120	200.46135	195.13513	195.41202	203.52127	194.01456	59.77076	
114	1.130	200.36226	195.11024	195.68198	203.40253	193.97830	60.02833	
115	1.140	200.36725	195.19547	196.02444	203.48328	194.10643	60.34668	
116	1.150	200.45164	195.10596	196.49777	203.27953	194.05730	60.65080	
117	1.160	200.46313	195.18855	196.89368	203.23929	193.96999	60.93499	
118	1.170	200.45444	195.21660	197.28189	202.10072	195.35948	62.83499	
119	1.180	200.43445	195.28902	197.69324	203.21910	194.10458	61.93960	
120	1.190	200.34680	195.22768	198.27487	203.47418	194.19901	62.30238	
121	1.200	200.46252	195.11211	198.54735	203.18071	194.07625	62.85015	
122	1.210	200.26443	195.28934	199.07848	203.51389	194.19730	63.21933	
123	1.220	200.23322	195.35997	199.60388	203.25185	194.07463	63.53920	
124	1.230	200.39331	195.27924	200.07240	203.31056	194.26234	64.09728	
125	1.240	200.24548	195.17761	200.40263	203.19429	194.24930	64.59044	
126	1.250	200.45206	195.23820	200.65924	203.30348	194.21988	65.13687	
127	1.260	200.34013	195.38060	201.40262	203.45921	194.21173	65.34793	
128	1.270	200.27699	195.35226	201.71004	203.22395	194.16756	65.79261	
129	1.280	200.44890	195.26590	202.13664	201.99541	195.42450	67.23613	
130	1.290	200.59010	195.29173	202.51775	202.18866	195.37367	67.83566	
